<svg xmlns="http://www.w3.org/2000/svg" xmlns:xlink="http://www.w3.org/1999/xlink" width="282" height="40" preserveAspectRatio="xMidYMid meet" version="1.0" viewBox="0 0 211.5 30" zoomAndPan="magnify"><defs><clipPath id="baad165908"><path d="M 3.167969 1.742188 L 28.632812 1.742188 L 28.632812 27 L 3.167969 27 Z M 3.167969 1.742188" clip-rule="nonzero"/></clipPath></defs><g clip-path="url(#baad165908)"><path fill="#fff" fill-opacity="1" fill-rule="evenodd" d="M 8.25 22.621094 L 8.539062 22.90625 L 8.566406 22.9375 C 9.464844 23.867188 9.453125 25.363281 8.539062 26.277344 C 7.621094 27.195312 6.125 27.203125 5.195312 26.308594 L 5.167969 26.277344 L 4.878906 25.992188 L 4.09375 25.203125 C 3.167969 24.277344 3.167969 22.761719 4.09375 21.832031 C 5.019531 20.90625 6.539062 20.90625 7.464844 21.832031 Z M 24.144531 9.578125 L 27.683594 6.039062 C 28.609375 5.113281 28.609375 3.597656 27.683594 2.667969 C 26.753906 1.742188 25.238281 1.742188 24.3125 2.667969 L 21.054688 5.925781 L 20.777344 6.207031 L 19.089844 7.890625 C 18.164062 8.816406 18.164062 10.335938 19.089844 11.261719 L 20.777344 12.949219 L 21.078125 13.246094 L 24.335938 16.507812 C 25.261719 17.433594 26.777344 17.433594 27.703125 16.507812 C 28.628906 15.582031 28.628906 14.0625 27.703125 13.136719 L 24.445312 9.875 Z M 4.230469 2.691406 L 4.230469 2.6875 C 5.15625 1.761719 6.675781 1.761719 7.601562 2.6875 L 27.660156 22.757812 C 28.589844 23.6875 28.589844 25.203125 27.660156 26.132812 C 26.734375 27.058594 25.21875 27.058594 24.289062 26.132812 L 4.230469 6.058594 C 3.304688 5.132812 3.304688 3.617188 4.230469 2.691406 Z M 4.199219 12.296875 C 5.125 11.371094 6.640625 11.371094 7.570312 12.296875 L 9.855469 14.582031 L 14.796875 19.527344 L 18.054688 22.789062 C 18.980469 23.714844 18.980469 25.234375 18.054688 26.160156 C 17.128906 27.085938 15.613281 27.085938 14.6875 26.160156 L 4.199219 15.671875 C 3.273438 14.742188 3.273438 13.226562 4.199219 12.296875 Z M 4.199219 12.296875"/></g><g fill="#fff" fill-opacity="1"><g><g><path d="M 4.859375 0 L 4.859375 -12.5625 L 0.5625 -12.5625 L 0.5625 -14.71875 L 11.859375 -14.71875 L 11.859375 -12.5625 L 7.546875 -12.5625 L 7.546875 0 Z M 4.859375 0" transform="translate(36.559128, 21.406408)"/></g></g></g><g fill="#fff" fill-opacity="1"><g><g><path d="M 7.109375 0.25 C 6.023438 0.25 5.046875 0.0351562 4.171875 -0.390625 C 3.304688 -0.816406 2.617188 -1.460938 2.109375 -2.328125 C 1.597656 -3.203125 1.34375 -4.304688 1.34375 -5.640625 L 1.34375 -14.71875 L 4.03125 -14.71875 L 4.03125 -5.609375 C 4.03125 -4.460938 4.304688 -3.609375 4.859375 -3.046875 C 5.421875 -2.484375 6.191406 -2.203125 7.171875 -2.203125 C 8.140625 -2.203125 8.90625 -2.484375 9.46875 -3.046875 C 10.03125 -3.609375 10.3125 -4.460938 10.3125 -5.609375 L 10.3125 -14.71875 L 13 -14.71875 L 13 -5.640625 C 13 -4.304688 12.734375 -3.203125 12.203125 -2.328125 C 11.671875 -1.460938 10.957031 -0.816406 10.0625 -0.390625 C 9.175781 0.0351562 8.191406 0.25 7.109375 0.25 Z M 7.109375 0.25" transform="translate(52.254201, 21.406408)"/></g></g></g><g fill="#fff" fill-opacity="1"><g><g><path d="M 1.4375 0 L 1.4375 -14.71875 L 6.828125 -14.71875 C 8.015625 -14.71875 8.988281 -14.515625 9.75 -14.109375 C 10.507812 -13.710938 11.078125 -13.175781 11.453125 -12.5 C 11.835938 -11.820312 12.03125 -11.066406 12.03125 -10.234375 C 12.03125 -9.335938 11.796875 -8.519531 11.328125 -7.78125 C 10.859375 -7.039062 10.125 -6.5 9.125 -6.15625 L 12.171875 0 L 9.078125 0 L 6.34375 -5.796875 L 4.125 -5.796875 L 4.125 0 Z M 4.125 -7.78125 L 6.671875 -7.78125 C 7.566406 -7.78125 8.222656 -7.992188 8.640625 -8.421875 C 9.066406 -8.859375 9.28125 -9.4375 9.28125 -10.15625 C 9.28125 -10.851562 9.070312 -11.410156 8.65625 -11.828125 C 8.238281 -12.253906 7.566406 -12.46875 6.640625 -12.46875 L 4.125 -12.46875 Z M 4.125 -7.78125" transform="translate(69.84271, 21.406408)"/></g></g></g><g fill="#fff" fill-opacity="1"><g><g><path d="M 1.4375 0 L 1.4375 -14.71875 L 4.125 -14.71875 L 4.125 0 Z M 1.4375 0" transform="translate(86.211009, 21.406408)"/></g></g></g><g fill="#fff" fill-opacity="1"><g><g><path d="M 1.4375 0 L 1.4375 -14.71875 L 4.125 -14.71875 L 11.046875 -4.359375 L 11.046875 -14.71875 L 13.734375 -14.71875 L 13.734375 0 L 11.046875 0 L 4.125 -10.34375 L 4.125 0 Z M 1.4375 0" transform="translate(95.026624, 21.406408)"/></g></g></g><g fill="#fff" fill-opacity="1"><g><g><path d="M 7.859375 0.25 C 6.472656 0.25 5.257812 -0.0625 4.21875 -0.6875 C 3.1875 -1.320312 2.382812 -2.203125 1.8125 -3.328125 C 1.238281 -4.460938 0.953125 -5.78125 0.953125 -7.28125 C 0.953125 -8.789062 1.25 -10.125 1.84375 -11.28125 C 2.4375 -12.4375 3.28125 -13.335938 4.375 -13.984375 C 5.476562 -14.640625 6.789062 -14.96875 8.3125 -14.96875 C 10.03125 -14.96875 11.457031 -14.554688 12.59375 -13.734375 C 13.726562 -12.910156 14.46875 -11.769531 14.8125 -10.3125 L 11.796875 -10.3125 C 11.578125 -10.988281 11.171875 -11.519531 10.578125 -11.90625 C 9.992188 -12.300781 9.238281 -12.5 8.3125 -12.5 C 6.832031 -12.5 5.691406 -12.03125 4.890625 -11.09375 C 4.097656 -10.164062 3.703125 -8.882812 3.703125 -7.25 C 3.703125 -5.625 4.097656 -4.363281 4.890625 -3.46875 C 5.679688 -2.582031 6.757812 -2.140625 8.125 -2.140625 C 9.445312 -2.140625 10.445312 -2.5 11.125 -3.21875 C 11.8125 -3.945312 12.222656 -4.898438 12.359375 -6.078125 L 8.640625 -6.078125 L 8.640625 -8.09375 L 15.078125 -8.09375 L 15.078125 0 L 12.59375 0 L 12.390625 -1.9375 C 11.910156 -1.238281 11.3125 -0.695312 10.59375 -0.3125 C 9.882812 0.0625 8.972656 0.25 7.859375 0.25 Z M 7.859375 0.25" transform="translate(113.45665, 21.406408)"/></g></g></g><g fill="#fff" fill-opacity="1"><g><g><path d="M 1.5625 0 L 1.5625 -14.71875 L 6.734375 -14.71875 C 7.765625 -14.71875 8.617188 -14.550781 9.296875 -14.21875 C 9.984375 -13.894531 10.492188 -13.445312 10.828125 -12.875 C 11.160156 -12.3125 11.328125 -11.679688 11.328125 -10.984375 C 11.328125 -10.023438 11.070312 -9.269531 10.5625 -8.71875 C 10.050781 -8.175781 9.441406 -7.800781 8.734375 -7.59375 C 9.273438 -7.488281 9.769531 -7.269531 10.21875 -6.9375 C 10.664062 -6.601562 11.019531 -6.179688 11.28125 -5.671875 C 11.539062 -5.171875 11.671875 -4.617188 11.671875 -4.015625 C 11.671875 -3.273438 11.488281 -2.597656 11.125 -1.984375 C 10.757812 -1.378906 10.21875 -0.894531 9.5 -0.53125 C 8.789062 -0.175781 7.921875 0 6.890625 0 Z M 3.328125 -8.28125 L 6.609375 -8.28125 C 7.546875 -8.28125 8.265625 -8.5 8.765625 -8.9375 C 9.273438 -9.382812 9.53125 -10 9.53125 -10.78125 C 9.53125 -11.53125 9.28125 -12.128906 8.78125 -12.578125 C 8.28125 -13.023438 7.535156 -13.25 6.546875 -13.25 L 3.328125 -13.25 Z M 3.328125 -1.46875 L 6.703125 -1.46875 C 7.710938 -1.46875 8.488281 -1.703125 9.03125 -2.171875 C 9.582031 -2.640625 9.859375 -3.296875 9.859375 -4.140625 C 9.859375 -4.972656 9.570312 -5.632812 9 -6.125 C 8.425781 -6.625 7.648438 -6.875 6.671875 -6.875 L 3.328125 -6.875 Z M 3.328125 -1.46875" transform="translate(132.973561, 21.406408)"/></g></g></g><g fill="#fff" fill-opacity="1"><g><g><path d="M 5.21875 0 L 5.21875 -5.59375 L 0.421875 -14.71875 L 2.421875 -14.71875 L 6.09375 -7.28125 L 9.78125 -14.71875 L 11.75 -14.71875 L 6.984375 -5.59375 L 6.984375 0 Z M 5.21875 0" transform="translate(148.900055, 21.406408)"/></g></g></g><g fill="#fff" fill-opacity="1"><g><g><path d="M 5 0 L 5 -13.265625 L 0.609375 -13.265625 L 0.609375 -14.71875 L 11.171875 -14.71875 L 11.171875 -13.265625 L 6.765625 -13.265625 L 6.765625 0 Z M 5 0" transform="translate(164.342677, 21.406408)"/></g></g></g><g fill="#fff" fill-opacity="1"><g><g><path d="M 1.5625 0 L 1.5625 -14.71875 L 10.65625 -14.71875 L 10.65625 -13.265625 L 3.328125 -13.265625 L 3.328125 -8.140625 L 10.03125 -8.140625 L 10.03125 -6.703125 L 3.328125 -6.703125 L 3.328125 -1.453125 L 10.65625 -1.453125 L 10.65625 0 Z M 1.5625 0" transform="translate(179.385576, 21.406408)"/></g></g></g><g fill="#fff" fill-opacity="1"><g><g><path d="M 6.25 0.25 C 5.164062 0.25 4.222656 0.0546875 3.421875 -0.328125 C 2.628906 -0.722656 2.015625 -1.269531 1.578125 -1.96875 C 1.140625 -2.675781 0.921875 -3.492188 0.921875 -4.421875 L 2.78125 -4.421875 C 2.78125 -3.835938 2.910156 -3.304688 3.171875 -2.828125 C 3.441406 -2.347656 3.832031 -1.960938 4.34375 -1.671875 C 4.851562 -1.378906 5.488281 -1.234375 6.25 -1.234375 C 7.238281 -1.234375 8.003906 -1.472656 8.546875 -1.953125 C 9.097656 -2.429688 9.375 -3.03125 9.375 -3.75 C 9.375 -4.332031 9.25 -4.800781 9 -5.15625 C 8.75 -5.519531 8.410156 -5.8125 7.984375 -6.03125 C 7.554688 -6.257812 7.0625 -6.457031 6.5 -6.625 C 5.945312 -6.789062 5.375 -6.976562 4.78125 -7.1875 C 3.644531 -7.582031 2.800781 -8.070312 2.25 -8.65625 C 1.707031 -9.238281 1.4375 -10 1.4375 -10.9375 C 1.414062 -11.71875 1.59375 -12.410156 1.96875 -13.015625 C 2.351562 -13.628906 2.890625 -14.109375 3.578125 -14.453125 C 4.273438 -14.796875 5.101562 -14.96875 6.0625 -14.96875 C 7 -14.96875 7.8125 -14.789062 8.5 -14.4375 C 9.195312 -14.09375 9.738281 -13.613281 10.125 -13 C 10.507812 -12.382812 10.707031 -11.679688 10.71875 -10.890625 L 8.875 -10.890625 C 8.875 -11.296875 8.769531 -11.695312 8.5625 -12.09375 C 8.351562 -12.5 8.035156 -12.828125 7.609375 -13.078125 C 7.179688 -13.328125 6.644531 -13.453125 6 -13.453125 C 5.195312 -13.472656 4.539062 -13.269531 4.03125 -12.84375 C 3.519531 -12.425781 3.265625 -11.847656 3.265625 -11.109375 C 3.265625 -10.472656 3.441406 -9.988281 3.796875 -9.65625 C 4.148438 -9.320312 4.648438 -9.046875 5.296875 -8.828125 C 5.941406 -8.609375 6.6875 -8.359375 7.53125 -8.078125 C 8.226562 -7.828125 8.859375 -7.53125 9.421875 -7.1875 C 9.984375 -6.851562 10.421875 -6.421875 10.734375 -5.890625 C 11.046875 -5.359375 11.203125 -4.675781 11.203125 -3.84375 C 11.203125 -3.144531 11.019531 -2.484375 10.65625 -1.859375 C 10.289062 -1.234375 9.738281 -0.722656 9 -0.328125 C 8.269531 0.0546875 7.351562 0.25 6.25 0.25 Z M 6.25 0.25" transform="translate(194.512619, 21.406408)"/></g></g></g></svg>